<svg xmlns="http://www.w3.org/2000/svg" width="247.686" height="118.278" viewBox="0 0 247.686 118.278">
  <defs>
    <style>
      .cls-1 {
        fill: #487d84;
      }
    </style>
  </defs>
  <g id="Layer_2" data-name="Layer 2">
    <g id="Layer_1-2" data-name="Layer 1">
      <g>
        <path class="cls-1" d="M21.249,56.579c-.384,20.225-3.2,44.162-19.457,61.315L0,116.614C10.88,96.645,11.648,71.3,11.648,48V9.217l11.521,4.608H57.091V0l14.08,1.408c-.128,1.664-1.28,2.816-4.352,3.328v9.089H99.205l6.4-8.449s7.552,6.017,11.9,10.113c-.256,1.408-1.408,2.048-3.328,2.048H78.852v9.472H95.876l4.865-4.992L111.109,29.7c-.64.9-2.432,1.792-4.48,2.176v14.08c-.129.768-4.864,2.944-8.064,2.944H97.029V45.186H21.377v7.681h82.052l5.5-5.761L119.3,56.963c-.895.9-2.3,1.28-4.736,1.408a94.043,94.043,0,0,1-12.672,7.04l-1.664-.768c.9-1.92,2.176-5.248,3.328-8.064ZM96.26,89.86c-.9,1.024-2.431,1.409-5.5,1.536a66.269,66.269,0,0,1-15.233,11.777c12.929,3.072,27.906,4.224,43.394,4.48v1.536c-3.967,1.152-6.4,4.353-7.167,8.96-17.538-1.792-32.9-4.863-45.315-10.5C51.842,113.8,34.049,117,14.336,118.278l-.639-2.049C30.465,113.8,46.21,109.7,58.883,103.557A53.146,53.146,0,0,1,46.85,93.572a108.835,108.835,0,0,1-27.393,12.417l-1.28-1.664A90.269,90.269,0,0,0,51.074,78.6c-7.04-.384-8.192-2.432-8.192-7.68V58.755L55.3,60.163a3.747,3.747,0,0,1-3.456,2.816v6.784c0,1.28.385,1.664,4.1,1.664H66.947c4.608,0,8.7,0,10.113-.128,1.279-.128,1.919-.256,2.3-.9a29.381,29.381,0,0,0,3.328-7.168H84.1l.384,7.168c2.944.9,3.712,1.792,3.712,3.328,0,3.713-3.84,4.865-21.889,4.865H58.5l6.784,2.944c-.768,1.408-2.432,2.176-5.12,1.792A41.9,41.9,0,0,1,56.707,86.4H79.748l6.784-5.76ZM36.226,59.523c2.432,10.112-1.792,16.641-6.144,19.2-2.817,1.664-7.3,1.664-8.449-1.28-1.152-2.688.768-5.12,3.328-6.528,3.968-1.665,8.7-6.4,9.088-11.521ZM21.377,17.537v9.472H40.194V17.537Zm0,23.937H40.194V30.722H21.377ZM69.251,17.537H49.538v9.472H69.251ZM49.538,41.474H69.251V30.722H49.538Zm2.689,48.514-2.689,1.92a55.39,55.39,0,0,0,15.745,8.321A59.323,59.323,0,0,0,78.339,89.988Zm3.967-33.025c23.042-.64,20.1,14.336,11.905,11.265-2.432-3.585-8.32-7.809-12.929-9.857ZM78.852,30.722V41.474H97.029V30.722Zm7.04,29.185c27.394,4.352,22.657,22.145,13.568,17.409-2.559-5.5-9.472-12.545-14.848-16.385Z"/>
        <path class="cls-1" d="M129.408,29.826c27.778,4.1,20.482,23.552,10.753,17.28-1.536-5.76-7.04-12.416-11.9-16.128Zm35.33-4.865c-5.12,15.105-14.976,43.267-16.768,49.155-1.025,3.84-1.921,7.808-1.792,11.136,0,5.889,3.968,11.777,3.584,22.4-.385,5.761-3.2,9.217-7.681,9.217-2.432,0-4.225-2.305-4.608-6.529,1.92-13.312,1.152-23.937-1.665-25.729-1.664-1.28-3.712-1.664-6.272-1.92V79.876h5.632c1.537,0,2.049,0,3.329-2.56,2.432-4.353,2.432-4.353,23.937-52.739ZM139.137,1.28c29.185,5.12,21.889,24.833,11.776,18.561C148.993,13.7,142.978,6.528,137.856,2.3Zm77.572,67.331v35.842c0,7.552-1.793,12.672-14.337,13.825-.128-2.945-.768-5.505-2.433-7.041-1.664-1.664-4.479-2.816-9.856-3.584v-1.92s11.265.9,13.953.9c2.048,0,2.688-.768,2.688-2.3V68.611H193.539V72.58c0,1.024-3.968,3.072-7.935,3.072H184.2V24.577L194.18,28.8H203.4c.9-4.736,1.664-10.5,2.176-15.1H176.259V41.09c0,23.3-1.536,54.659-23.041,76.035l-1.92-1.279c13.7-22.145,15.36-49.539,15.36-74.628V4.736l11.393,5.248h51.33l6.4-8.448s7.425,5.888,11.905,10.241c-.384,1.28-1.665,1.92-3.329,1.92H208.132l11.137,2.816c-.512,1.408-2.048,2.688-4.609,2.56-1.792,2.944-4.1,6.4-6.4,9.728h20.481l5.12-5.376L245,31.746c-.769,1.024-2.688,2.048-5.12,2.56V71.171c-.128.9-5.12,3.073-8.192,3.073h-1.665V68.611ZM201.6,84.868c-.768,1.28-1.792,2.048-4.737,1.536-5.632,7.936-15.488,17.921-26.881,24.065l-1.28-1.536c8.576-8.192,16.385-21.121,19.969-30.465Zm-8.065-52.226V46.979h36.482V32.642Zm0,32.257h36.482V50.563H193.539Zm30.722,15.489c32.641,12.288,24.321,34.05,14.081,26.369-1.92-8.448-9.217-18.945-15.362-25.473Z"/>
      </g>
    </g>
  </g>
</svg>
