<svg xmlns="http://www.w3.org/2000/svg" width="377.654" height="122.63" viewBox="0 0 377.654 122.63">
  <defs>
    <style>
      .cls-1 {
        fill: #487d84;
      }

      .cls-2 {
        fill: #fff;
      }

      .cls-3 {
        fill: #5ca2ab;
      }
    </style>
  </defs>
  <g id="Layer_2" data-name="Layer 2">
    <g id="Layer_1-2" data-name="Layer 1">
      <g>
        <path class="cls-1" d="M21.249,58.755c-.384,20.225-3.2,44.162-19.457,61.315L0,118.79C10.88,98.821,11.648,73.475,11.648,50.179V11.393L23.169,16H57.091V2.176l14.08,1.408c-.128,1.664-1.28,2.816-4.352,3.328V16H99.205l6.4-8.448s7.552,6.016,11.9,10.112c-.256,1.408-1.408,2.048-3.328,2.048H78.852v9.472H95.876l4.865-4.992,10.368,7.681c-.64.9-2.432,1.792-4.48,2.176V48.13c-.129.768-4.864,2.945-8.064,2.945H97.029V47.362H21.377v7.681h82.052l5.5-5.76L119.3,59.139c-.895.9-2.3,1.28-4.736,1.408a94.043,94.043,0,0,1-12.672,7.04l-1.664-.768c.9-1.92,2.176-5.248,3.328-8.064ZM96.26,92.036c-.9,1.024-2.431,1.409-5.5,1.537a66.293,66.293,0,0,1-15.233,11.776c12.929,3.072,27.906,4.224,43.394,4.48v1.537c-3.967,1.151-6.4,4.352-7.167,8.96-17.538-1.792-32.9-4.864-45.315-10.5-14.593,6.144-32.386,9.345-52.1,10.625l-.639-2.048c16.768-2.433,32.513-6.529,45.186-12.673A53.146,53.146,0,0,1,46.85,95.748a108.835,108.835,0,0,1-27.393,12.417l-1.28-1.664a90.269,90.269,0,0,0,32.9-25.729c-7.04-.384-8.192-2.432-8.192-7.68V60.931L55.3,62.339a3.747,3.747,0,0,1-3.456,2.816v6.784c0,1.281.385,1.664,4.1,1.664H66.947c4.608,0,8.7,0,10.113-.128,1.279-.128,1.919-.255,2.3-.9a29.344,29.344,0,0,0,3.328-7.168H84.1l.384,7.168c2.944.9,3.712,1.792,3.712,3.329,0,3.712-3.84,4.864-21.889,4.864H58.5l6.784,2.944c-.768,1.408-2.432,2.176-5.12,1.792a41.9,41.9,0,0,1-3.456,3.072H79.748l6.784-5.76ZM36.226,61.7c2.432,10.112-1.792,16.641-6.144,19.2-2.817,1.664-7.3,1.664-8.449-1.28-1.152-2.688.768-5.12,3.328-6.528,3.968-1.664,8.7-6.4,9.088-11.521ZM21.377,19.713v9.472H40.194V19.713Zm0,23.937H40.194V32.9H21.377ZM69.251,19.713H49.538v9.472H69.251ZM49.538,43.65H69.251V32.9H49.538Zm2.689,48.514q-1.344.962-2.689,1.92a55.39,55.39,0,0,0,15.745,8.321A59.323,59.323,0,0,0,78.339,92.164Zm3.967-33.025C79.236,58.5,76.292,73.475,68.1,70.4c-2.432-3.585-8.32-7.809-12.929-9.857ZM78.852,32.9V43.65H97.029V32.9Zm7.04,29.185c27.394,4.352,22.657,22.145,13.568,17.409-2.559-5.5-9.472-12.545-14.848-16.385Z"/>
        <path class="cls-1" d="M129.408,32c27.778,4.1,20.482,23.553,10.753,17.281-1.536-5.761-7.04-12.417-11.9-16.129Zm35.33-4.864c-5.12,15.1-14.976,43.266-16.768,49.154-1.025,3.84-1.921,7.808-1.792,11.136,0,5.889,3.968,11.777,3.584,22.4-.385,5.761-3.2,9.217-7.681,9.217-2.432,0-4.225-2.3-4.608-6.529,1.92-13.312,1.152-23.937-1.665-25.729-1.664-1.28-3.712-1.664-6.272-1.92V82.052h5.632c1.537,0,2.049,0,3.329-2.56,2.432-4.353,2.432-4.353,23.937-52.739Zm-25.6-23.682c29.185,5.12,21.889,24.833,11.776,18.561-1.92-6.144-7.935-13.313-13.057-17.537Zm77.572,67.331v35.842c0,7.552-1.793,12.673-14.337,13.825-.128-2.944-.768-5.5-2.433-7.041-1.664-1.664-4.479-2.816-9.856-3.584v-1.92s11.265.9,13.953.9c2.048,0,2.688-.768,2.688-2.3V70.787H193.539v3.969c0,1.024-3.968,3.072-7.935,3.072H184.2V26.753l9.985,4.224H203.4c.9-4.735,1.664-10.5,2.176-15.1H176.259V43.266c0,23.3-1.536,54.659-23.041,76.036l-1.92-1.28c13.7-22.145,15.36-49.539,15.36-74.628V6.912l11.393,5.248h51.33l6.4-8.448s7.425,5.888,11.905,10.241c-.384,1.28-1.665,1.92-3.329,1.92H208.132l11.137,2.816c-.512,1.408-2.048,2.688-4.609,2.56-1.792,2.944-4.1,6.4-6.4,9.728h20.481l5.12-5.376L245,33.922c-.769,1.024-2.688,2.048-5.12,2.56V73.347c-.128.9-5.12,3.073-8.192,3.073h-1.665V70.787ZM201.6,87.044c-.768,1.28-1.792,2.048-4.737,1.536-5.632,7.936-15.488,17.921-26.881,24.065l-1.28-1.536c8.576-8.192,16.385-21.121,19.969-30.465Zm-8.065-52.226V49.155h36.482V34.818Zm0,32.258h36.482V52.739H193.539Zm30.722,15.488c32.641,12.288,24.321,34.05,14.081,26.369-1.92-8.448-9.217-18.945-15.362-25.473Z"/>
      </g>
      <g>
        <path class="cls-2" d="M282.837,32.408c-1.664,12.289-5.888,23.041-24.577,31.106L256.6,61.722c12.928-8.7,16-19.2,17.152-29.314h-11.52L261.076,28.7h30.465l4.609-4.609,9.472,7.425c-.9,1.024-2.3,1.536-4.736,1.792-.256,15.233-1.28,21.121-4.864,23.809a15.253,15.253,0,0,1-9.345,2.688c0-2.176-.256-4.48-1.536-5.76-1.024-1.024-3.328-1.664-5.888-2.176l.128-2.048c2.688.128,6.656.384,8.448.384,1.536,0,2.3-.256,2.816-.768,1.281-1.152,1.792-6.017,2.049-17.025ZM258.772,14.359h51.842V2.2l14.849,1.408c-.256,1.792-1.408,2.944-4.609,3.456v7.3h33.794l6.657-8.7s7.68,6.016,12.289,10.24c-.385,1.408-1.536,2.049-3.328,2.049H326.359l11.009,3.84c-.641,1.408-2.177,2.431-4.864,2.175A130.452,130.452,0,0,1,320.6,35.865l2.944.256c-.128,1.408-1.025,2.431-3.456,2.815V59.289c0,.9-3.968,2.817-7.3,2.817h-1.664V34.84l6.015.64a140.094,140.094,0,0,0,7.681-17.536H300.758c20.993,6.528,14.081,21.12,6.656,15.616-1.024-4.992-4.992-11.137-8.448-14.721l1.28-.895H259.668Zm88.836,46.083,13.7,1.408c-.256,1.407-1.024,2.56-3.712,2.943V117.02c0,1.024-4.353,3.072-8.193,3.072h-1.792V83.355H320.343v32.9c-.128.64-3.073,3.073-7.936,3.073H311V83.355h-24.45c-1.024,13.312-5.76,28.033-24.449,36.865l-1.408-1.408c13.7-10.752,16.129-26.241,16.129-39.682V60.442L290.9,61.85c-.256,1.664-1.28,2.815-4.224,3.2V67.1h60.931Zm-63.747,51.714c4.992-5.76,9.729-14.849,12.545-24.705l12.673,4.608c-.513,1.408-2.049,2.433-4.737,2.176A49.17,49.17,0,0,1,285.4,113.564Zm63.747-32.642V70.938H286.677v8.576Zm-21.121,9.217c25.73,10.112,16.769,28.417,8.321,21.121-.384-6.784-5.249-15.232-9.729-20.225ZM370.009,30.1c-1.152,1.024-3.328,1.024-6.144-.128a99.509,99.509,0,0,1-10.241,2.56c4.1,9.472,12.417,16.384,21.89,20.1l-.128,1.28c-3.456.768-5.889,3.712-7.169,8.193a40.674,40.674,0,0,1-11.649-13.442v.128c-5.12,2.177-12.8,5.249-23.169,9.217a4.034,4.034,0,0,1-2.944,2.817l-4.864-9.985c1.664-.128,3.968-.385,6.784-.768V27.415L343.384,30.1a97.4,97.4,0,0,0,17.153-8.448ZM340.824,49.049c4.608-.64,9.729-1.408,14.849-2.049a63.818,63.818,0,0,1-4.737-13.952c-3.2.64-6.656,1.153-10.112,1.536Z"/>
        <path class="cls-3" d="M310.614,2.2l14.849,1.408c-.256,1.792-1.408,2.944-4.609,3.456v7.3h33.794l6.657-8.7s7.68,6.016,12.289,10.24c-.385,1.408-1.536,2.049-3.328,2.049H326.359l11.009,3.84C336.794,23.046,335.5,24,333.3,24q-.381,0-.8-.04A130.452,130.452,0,0,1,320.6,35.865l2.944.256c-.128,1.408-1.025,2.431-3.456,2.815V59.289c0,.9-3.968,2.817-7.3,2.817h-1.664V34.84l6.015.64a140.094,140.094,0,0,0,7.681-17.536H300.758C318.53,23.47,316.3,34.776,310.7,34.776a5.555,5.555,0,0,1-3.283-1.216c-1.024-4.992-4.992-11.137-8.448-14.721l1.28-.895H259.668l-.9-3.585h51.842V2.2m49.923,19.457,9.472,8.448a3.455,3.455,0,0,1-2.357.753,10.3,10.3,0,0,1-3.787-.881,99.509,99.509,0,0,1-10.241,2.56c4.1,9.472,12.417,16.384,21.89,20.1l-.128,1.28c-3.456.768-5.889,3.712-7.169,8.193a40.674,40.674,0,0,1-11.649-13.442v.128c-5.12,2.177-12.8,5.249-23.169,9.217a4.034,4.034,0,0,1-2.944,2.817l-4.864-9.985c1.664-.128,3.968-.385,6.784-.768V27.415L343.384,30.1a97.4,97.4,0,0,0,17.153-8.448M340.824,49.049c4.608-.64,9.729-1.408,14.849-2.049a63.818,63.818,0,0,1-4.737-13.952c-3.2.64-6.656,1.153-10.112,1.536V49.049M296.15,24.087l9.472,7.425c-.9,1.024-2.3,1.536-4.736,1.792-.256,15.233-1.28,21.121-4.864,23.809a15.253,15.253,0,0,1-9.345,2.688c0-2.176-.256-4.48-1.536-5.76-1.024-1.024-3.328-1.664-5.888-2.176l.128-2.048c2.688.128,6.656.384,8.448.384,1.536,0,2.3-.256,2.816-.768,1.281-1.152,1.792-6.017,2.049-17.025h-9.857c-1.664,12.289-5.888,23.041-24.577,31.106L256.6,61.722c12.928-8.7,16-19.2,17.152-29.314h-11.52L261.076,28.7h30.465l4.609-4.609m51.458,36.355,13.7,1.408c-.256,1.407-1.024,2.56-3.712,2.943V117.02c0,1.024-4.353,3.072-8.193,3.072h-1.792V83.355H320.343v32.9c-.128.64-3.073,3.073-7.936,3.073H311V83.355h-24.45c-1.024,13.312-5.76,28.033-24.449,36.865l-1.408-1.408c13.7-10.752,16.129-26.241,16.129-39.682V60.442L290.9,61.85c-.256,1.664-1.28,2.815-4.224,3.2V67.1h60.931V60.442M286.677,79.514h60.931V70.938H286.677v8.576m9.729,7.937,12.673,4.608c-.459,1.262-1.741,2.215-3.935,2.215-.255,0-.522-.012-.8-.039A49.17,49.17,0,0,1,285.4,113.564l-1.536-1.408c4.992-5.76,9.729-14.849,12.545-24.705m30.081,1.28c21.633,8.5,18.743,22.8,12.253,22.8a6.084,6.084,0,0,1-3.932-1.674c-.384-6.784-5.249-15.232-9.729-20.225l1.408-.9M308.614,0V12.359h-52.4l.622,2.485.9,3.585.378,1.515h39.146l.274.284a36.3,36.3,0,0,1,4.563,5.974l-4.7-3.689-1.4-1.093-1.253,1.253L290.713,26.7H258.361l.805,2.592L260.318,33l.436,1.408h10.721c-1.28,8.83-4.49,17.908-16,25.655l-1.94,1.306,1.591,1.714,1.664,1.792.961,1.035,1.3-.56c8.565-3.7,14.286-7.951,18.153-12.787l-.057.92,1.712.343c3.346.67,4.493,1.256,4.866,1.629.575.575.892,1.838.944,3.762l-7.65-.765-2.2-.22v20.9c0,11.182-1.593,27.3-15.364,38.109l-1.774,1.392,1.6,1.595,1.408,1.408,1,1,1.274-.6c15.267-7.214,23.6-19.222,25.421-36.673h6.548l-.441,1.546c-2.655,9.291-7.19,18.242-12.133,23.945l-1.274,1.47,1.434,1.314,1.536,1.408,1.067.979,1.263-.709A51.5,51.5,0,0,0,305.5,96.267,6.764,6.764,0,0,0,309,95.22v26.105h3.408c5.047,0,9.464-2.516,9.9-4.68l.039-.195V89.573l1.248,1.39c4.32,4.814,8.874,12.886,9.22,19l.048.846.641.555a8.08,8.08,0,0,0,5.24,2.16c3.241,0,5.876-2.41,6.555-6,1.1-5.819-2.97-14.721-18.076-20.659l-.947-.372-.859.547-1.408.9L322.343,89V85.355h23.265v36.737H349.4c3.594,0,10.193-1.926,10.193-5.072V66.38a5.083,5.083,0,0,0,3.679-4.172l.252-1.382a41.733,41.733,0,0,0,3.506,2.89l2.318,1.708.792-2.769c.769-2.692,2.379-6.056,5.679-6.789l1.413-.314.144-1.44.128-1.28.15-1.508-1.411-.553c-8.737-3.424-15.794-9.471-19.709-16.8,2.666-.588,5.132-1.225,7.262-1.876a11.469,11.469,0,0,0,3.856.765,5.429,5.429,0,0,0,3.686-1.259l1.677-1.492-1.675-1.5-9.472-8.448-.246-.219h8.644c3.737,0,4.9-2.207,5.257-3.522l.322-1.177-.9-.824c-4.612-4.228-12.091-10.093-12.407-10.341l-1.593-1.248L359.716,4.44l-6.056,7.919H322.854V8.677c2.061-.584,4.165-1.818,4.589-4.787l.3-2.076-2.087-.2L310.8.208,308.614,0Zm29.552,19.944H359.5l-.071.047a94.364,94.364,0,0,1-16.181,8.021L334.605,25.9a5.782,5.782,0,0,0,4.584-3.289l.907-1.995-1.93-.673Zm-28.23,0h12.013c-1.683,4.386-3.742,9.062-5.654,12.833a7.1,7.1,0,0,0,.361-1.4c.506-3.331-1.179-7.761-6.72-11.429Zm15.38,14.323c1.765-1.662,3.483-3.363,5.059-5.005V48.319c-1.945.247-3.63.428-4.938.528l-2.933.226,1.289,2.644,4.864,9.985.676,1.387,1.514-.3a5.715,5.715,0,0,0,4.039-3.2c8.532-3.271,15.694-6.112,20.889-8.285a43.362,43.362,0,0,0,6.851,8.678l-1.117-.115-13.7-1.408-2.2-.226V65.1H291.492a5.237,5.237,0,0,0,1.386-2.944l.2-1.294a13.686,13.686,0,0,0,4.173-2.169c4.334-3.249,5.313-10,5.6-23.655a9.24,9.24,0,0,0,2.635-.907l.119.582.615.456a8.257,8.257,0,0,0,2.9,1.412V64.106h3.664c3.192,0,9.3-1.876,9.3-4.817V40.495a4.718,4.718,0,0,0,3.448-4.194l.181-2-.4-.035Zm-40.752.141h6.079c-.125,4.482-.444,12.286-1.369,13.569l0,0-.037.037s-.216.183-1.4.183c-1.2,0-3.585-.129-5.686-.243l-1.826-.1a41.737,41.737,0,0,0,4.247-13.453Zm58.26,1.955c2.308-.285,4.519-.618,6.607-.994a66.489,66.489,0,0,0,3.3,9.994c-2.7.358-5.357.737-7.952,1.107l-1.956.278V36.363ZM288.677,72.938h56.931v4.576H288.677V72.938ZM296.5,85.355H309V89.9l-11.91-4.331-.594-.216Z"/>
      </g>
    </g>
  </g>
</svg>
