<svg xmlns="http://www.w3.org/2000/svg" width="124.116" height="122.63" viewBox="0 0 124.116 122.63">
  <defs>
    <style>
      .cls-1 {
        fill: #fff;
      }

      .cls-2 {
        fill: #5ca2ab;
      }
    </style>
  </defs>
  <g id="Layer_2" data-name="Layer 2">
    <g id="Layer_1-2" data-name="Layer 1">
      <g>
        <path class="cls-1" d="M29.3,32.408C27.634,44.7,23.41,55.449,4.721,63.514L3.057,61.722c12.929-8.7,16-19.2,17.153-29.314H8.689L7.537,28.7H38l4.608-4.609,9.472,7.425c-.9,1.024-2.3,1.536-4.736,1.792-.256,15.233-1.28,21.121-4.864,23.809A15.252,15.252,0,0,1,33.139,59.8c0-2.176-.256-4.48-1.537-5.76-1.024-1.024-3.328-1.664-5.888-2.176l.128-2.048c2.689.128,6.656.384,8.449.384,1.535,0,2.3-.256,2.816-.768,1.28-1.152,1.792-6.017,2.048-17.025ZM5.233,14.359H57.076V2.2L71.924,3.607c-.256,1.792-1.408,2.944-4.608,3.456v7.3H101.11l6.656-8.7s7.681,6.016,12.289,10.24c-.385,1.408-1.536,2.049-3.328,2.049H72.821l11.008,3.84c-.64,1.408-2.176,2.431-4.864,2.175a130.452,130.452,0,0,1-11.9,11.906L70,36.121c-.128,1.408-1.024,2.431-3.456,2.815V59.289c0,.9-3.968,2.817-7.3,2.817H57.588V34.84l6.016.64a140.241,140.241,0,0,0,7.681-17.536H47.219C68.212,24.472,61.3,39.064,53.875,33.56c-1.024-4.992-4.992-11.137-8.448-14.721l1.28-.895H6.129ZM94.07,60.442l13.7,1.408c-.256,1.407-1.023,2.56-3.712,2.943V117.02c0,1.024-4.353,3.072-8.192,3.072H94.07V83.355H66.8v32.9c-.128.64-3.072,3.073-7.936,3.073H57.46V83.355H33.011c-1.024,13.312-5.761,28.033-24.45,36.865l-1.408-1.408C20.85,108.06,23.282,92.571,23.282,79.13V60.442L37.363,61.85c-.256,1.664-1.28,2.815-4.224,3.2V67.1H94.07ZM30.323,112.156c4.992-5.76,9.728-14.849,12.544-24.705L55.54,92.059c-.512,1.408-2.048,2.433-4.736,2.176a49.183,49.183,0,0,1-18.945,19.329ZM94.07,79.514V70.938H33.139v8.576ZM72.949,88.731c25.729,10.112,16.768,28.417,8.32,21.121-.384-6.784-5.248-15.232-9.729-20.225ZM116.47,30.1c-1.151,1.024-3.328,1.024-6.144-.128a99.509,99.509,0,0,1-10.241,2.56c4.1,9.472,12.417,16.384,21.89,20.1l-.128,1.28c-3.456.768-5.889,3.712-7.169,8.193A40.671,40.671,0,0,1,103.03,48.664v.128c-5.12,2.177-12.8,5.249-23.169,9.217a4.035,4.035,0,0,1-2.945,2.817l-4.864-9.985c1.664-.128,3.969-.385,6.784-.768V27.415L89.845,30.1A97.362,97.362,0,0,0,107,21.656ZM87.285,49.049c4.608-.64,9.729-1.408,14.849-2.049A63.765,63.765,0,0,1,97.4,33.048c-3.2.64-6.656,1.153-10.113,1.536Z"/>
        <path class="cls-2" d="M57.076,2.2,71.924,3.607c-.256,1.792-1.408,2.944-4.608,3.456v7.3H101.11l6.656-8.7s7.681,6.016,12.289,10.24c-.385,1.408-1.536,2.049-3.328,2.049H72.821l11.008,3.84C83.255,23.046,81.962,24,79.765,24c-.255,0-.521-.013-.8-.04a130.452,130.452,0,0,1-11.9,11.906L70,36.121c-.128,1.408-1.024,2.431-3.456,2.815V59.289c0,.9-3.968,2.817-7.3,2.817H57.588V34.84l6.016.64a140.241,140.241,0,0,0,7.681-17.536H47.219c17.772,5.526,15.545,16.832,9.939,16.832a5.56,5.56,0,0,1-3.283-1.216c-1.024-4.992-4.992-11.137-8.448-14.721l1.28-.895H6.129l-.9-3.585H57.076V2.2M107,21.656,116.47,30.1a3.454,3.454,0,0,1-2.356.753,10.306,10.306,0,0,1-3.788-.881,99.509,99.509,0,0,1-10.241,2.56c4.1,9.472,12.417,16.384,21.89,20.1l-.128,1.28c-3.456.768-5.889,3.712-7.169,8.193A40.671,40.671,0,0,1,103.03,48.664v.128c-5.12,2.177-12.8,5.249-23.169,9.217a4.035,4.035,0,0,1-2.945,2.817l-4.864-9.985c1.664-.128,3.969-.385,6.784-.768V27.415L89.845,30.1A97.362,97.362,0,0,0,107,21.656M87.285,49.049c4.608-.64,9.729-1.408,14.849-2.049A63.765,63.765,0,0,1,97.4,33.048c-3.2.64-6.656,1.153-10.113,1.536V49.049M42.611,24.087l9.472,7.425c-.9,1.024-2.3,1.536-4.736,1.792-.256,15.233-1.28,21.121-4.864,23.809A15.252,15.252,0,0,1,33.139,59.8c0-2.176-.256-4.48-1.537-5.76-1.024-1.024-3.328-1.664-5.888-2.176l.128-2.048c2.689.128,6.656.384,8.449.384,1.535,0,2.3-.256,2.816-.768,1.28-1.152,1.792-6.017,2.048-17.025H29.3C27.634,44.7,23.41,55.449,4.721,63.514L3.057,61.722c12.929-8.7,16-19.2,17.153-29.314H8.689L7.537,28.7H38l4.608-4.609M94.07,60.442l13.7,1.408c-.256,1.407-1.023,2.56-3.712,2.943V117.02c0,1.024-4.353,3.072-8.192,3.072H94.07V83.355H66.8v32.9c-.128.64-3.072,3.073-7.936,3.073H57.46V83.355H33.011c-1.024,13.312-5.761,28.033-24.45,36.865l-1.408-1.408C20.85,108.06,23.282,92.571,23.282,79.13V60.442L37.363,61.85c-.256,1.664-1.28,2.815-4.224,3.2V67.1H94.07V60.442M33.139,79.514H94.07V70.938H33.139v8.576m9.728,7.937L55.54,92.059c-.459,1.262-1.74,2.215-3.935,2.215-.255,0-.522-.012-.8-.039a49.183,49.183,0,0,1-18.945,19.329l-1.536-1.408c4.992-5.76,9.728-14.849,12.544-24.705m30.082,1.28c21.632,8.5,18.742,22.8,12.252,22.8a6.084,6.084,0,0,1-3.932-1.674c-.384-6.784-5.248-15.232-9.729-20.225l1.409-.9M55.076,0V12.359H2.672l.621,2.485.9,3.585.379,1.515H43.714l.273.284A36.3,36.3,0,0,1,48.55,26.2l-4.7-3.689L42.45,21.42,41.2,22.673,37.174,26.7H4.823l.8,2.592L6.779,33l.437,1.408h10.72c-1.279,8.83-4.489,17.908-16,25.655L0,61.369l1.591,1.714,1.664,1.792.962,1.035,1.3-.56c8.564-3.7,14.285-7.951,18.153-12.787l-.058.92,1.712.343c3.346.67,4.493,1.256,4.867,1.629.575.575.891,1.838.943,3.762l-7.65-.765-2.2-.22v20.9c0,11.182-1.593,27.3-15.364,38.109l-1.774,1.392,1.595,1.595,1.408,1.408,1,1,1.273-.6c15.267-7.214,23.6-19.222,25.421-36.673h6.549L40.944,86.9c-2.654,9.291-7.19,18.242-12.133,23.945l-1.274,1.47,1.434,1.314,1.536,1.408,1.068.979,1.263-.709A51.5,51.5,0,0,0,51.957,96.267a6.761,6.761,0,0,0,3.5-1.047v26.105h3.408c5.047,0,9.464-2.516,9.9-4.68l.039-.195V89.573l1.248,1.39c4.32,4.814,8.874,12.886,9.22,19l.048.846.642.555a8.076,8.076,0,0,0,5.239,2.16c3.242,0,5.876-2.41,6.556-6,1.1-5.819-2.97-14.721-18.077-20.659l-.947-.372-.859.547-1.408.9L68.8,89V85.355H92.07v36.737h3.792c3.593,0,10.192-1.926,10.192-5.072V66.38a5.084,5.084,0,0,0,3.68-4.172l.251-1.382a41.894,41.894,0,0,0,3.506,2.89l2.319,1.708.791-2.769c.77-2.692,2.379-6.056,5.68-6.789l1.412-.314.144-1.44.128-1.28.151-1.508-1.411-.553c-8.737-3.424-15.794-9.471-19.71-16.8,2.666-.588,5.133-1.225,7.262-1.876a11.47,11.47,0,0,0,3.857.765A5.429,5.429,0,0,0,117.8,31.6l1.678-1.492-1.676-1.5-9.471-8.448-.246-.219h8.643c3.737,0,4.9-2.207,5.257-3.522l.322-1.177-.9-.824C116.794,10.193,109.315,4.328,109,4.08l-1.593-1.248L106.177,4.44l-6.056,7.919h-30.8V8.677c2.06-.584,4.164-1.818,4.588-4.787l.3-2.076-2.087-.2L57.264.208,55.076,0ZM84.627,19.944h21.334l-.072.047a94.364,94.364,0,0,1-16.181,8.021L81.066,25.9a5.78,5.78,0,0,0,4.584-3.289l.907-1.995-1.93-.673Zm-28.23,0H68.41c-1.683,4.386-3.742,9.062-5.653,12.833a7.1,7.1,0,0,0,.361-1.4c.506-3.331-1.18-7.761-6.721-11.429ZM71.778,34.267c1.764-1.662,3.483-3.363,5.058-5.005V48.319c-1.945.247-3.63.428-4.937.528l-2.933.226,1.288,2.644L75.118,61.7l.676,1.387,1.514-.3a5.713,5.713,0,0,0,4.039-3.2c8.533-3.271,15.694-6.112,20.889-8.285a43.362,43.362,0,0,0,6.851,8.678l-1.116-.115-13.7-1.408-2.2-.226V65.1H37.954a5.23,5.23,0,0,0,1.385-2.944l.2-1.294a13.675,13.675,0,0,0,4.173-2.169c4.334-3.249,5.313-10,5.6-23.655a9.219,9.219,0,0,0,2.635-.907l.12.582.614.456a8.265,8.265,0,0,0,2.9,1.412V64.106h3.664c3.192,0,9.3-1.876,9.3-4.817V40.495A4.718,4.718,0,0,0,72,36.3l.182-2-.4-.035Zm-40.753.141H37.1c-.125,4.482-.444,12.286-1.369,13.569l-.005,0-.037.037s-.216.183-1.4.183c-1.2,0-3.585-.129-5.686-.243l-1.827-.1a41.688,41.688,0,0,0,4.247-13.453Zm58.26,1.955c2.308-.285,4.519-.618,6.608-.994a66.376,66.376,0,0,0,3.3,9.994c-2.695.358-5.356.737-7.952,1.107l-1.956.278V36.363ZM35.139,72.938H92.07v4.576H35.139V72.938Zm7.817,12.417h12.5V89.9L43.551,85.571l-.595-.216Z"/>
      </g>
    </g>
  </g>
</svg>
